<svg width="26" height="21" viewBox="0 0 26 21" fill="none" xmlns="http://www.w3.org/2000/svg">
<path d="M14.22 11.4021C14.6385 11.0418 14.6385 10.4576 14.22 10.0972L7.39939 4.2253C6.98085 3.86497 6.30225 3.86497 5.88371 4.2253C5.46517 4.58564 5.46517 5.16985 5.88371 5.53018L11.9465 10.7497L5.88373 15.9692C5.46518 16.3295 5.46519 16.9137 5.88373 17.2741C6.30228 17.6344 6.98087 17.6344 7.39941 17.2741L14.22 11.4021ZM11.7204 11.6724L13.4621 11.6724L13.4621 9.82699L11.7204 9.82699L11.7204 11.6724Z" fill="#2B9CC2"/>
<path d="M25.258 11.73C25.8858 11.1894 25.8858 10.3131 25.258 9.77257L15.0274 0.964308C14.3996 0.423789 13.3818 0.42379 12.754 0.96431C12.1262 1.50483 12.1262 2.38119 12.754 2.9217L21.8478 10.7513L12.754 18.5809C12.1262 19.1214 12.1262 19.9977 12.754 20.5382C13.3818 21.0788 14.3996 21.0788 15.0274 20.5382L25.258 11.73ZM22.3797 12.1354L24.1213 12.1354L24.1213 9.36718L22.3797 9.36718L22.3797 12.1354Z" fill="#2B9CC2"/>
<path d="M5.12021 11.0775C5.32947 10.8973 5.32947 10.6052 5.12021 10.425L1.71012 7.48882C1.50086 7.30864 1.16158 7.30864 0.952323 7.48882C0.743064 7.669 0.743064 7.96113 0.952324 8.14131L3.98351 10.7513L0.952332 13.3612C0.743073 13.5414 0.743073 13.8335 0.952333 14.0137C1.16159 14.1939 1.50087 14.1939 1.71013 14.0137L5.12021 11.0775ZM2.99986 11.2126L4.74131 11.2126L4.74131 10.2899L2.99986 10.2899L2.99986 11.2126Z" fill="#2B9CC2"/>
</svg>
