<svg width="107" height="25" viewBox="0 0 107 25" fill="none" xmlns="http://www.w3.org/2000/svg">
<path d="M5.352 5.8H2.752L2.256 7H0.928L3.424 1.4H4.704L7.208 7H5.848L5.352 5.8ZM4.944 4.816L4.056 2.672L3.168 4.816H4.944ZM10.317 2.632C10.8503 2.632 11.2797 2.792 11.605 3.112C11.9357 3.432 12.101 3.90667 12.101 4.536V7H10.853V4.728C10.853 4.38667 10.7783 4.13333 10.629 3.968C10.4797 3.79733 10.2637 3.712 9.981 3.712C9.66633 3.712 9.41567 3.81067 9.229 4.008C9.04233 4.2 8.949 4.488 8.949 4.872V7H7.701V2.696H8.893V3.2C9.05833 3.01867 9.26367 2.88 9.509 2.784C9.75433 2.68267 10.0237 2.632 10.317 2.632ZM17.6631 1.064V7H16.4711V6.504C16.1618 6.87733 15.7138 7.064 15.1271 7.064C14.7218 7.064 14.3538 6.97333 14.0231 6.792C13.6978 6.61067 13.4418 6.352 13.2551 6.016C13.0685 5.68 12.9751 5.29067 12.9751 4.848C12.9751 4.40533 13.0685 4.016 13.2551 3.68C13.4418 3.344 13.6978 3.08533 14.0231 2.904C14.3538 2.72267 14.7218 2.632 15.1271 2.632C15.6765 2.632 16.1058 2.80533 16.4151 3.152V1.064H17.6631ZM15.3431 6.04C15.6578 6.04 15.9191 5.93333 16.1271 5.72C16.3351 5.50133 16.4391 5.21067 16.4391 4.848C16.4391 4.48533 16.3351 4.19733 16.1271 3.984C15.9191 3.76533 15.6578 3.656 15.3431 3.656C15.0231 3.656 14.7591 3.76533 14.5511 3.984C14.3431 4.19733 14.2391 4.48533 14.2391 4.848C14.2391 5.21067 14.3431 5.50133 14.5511 5.72C14.7591 5.93333 15.0231 6.04 15.3431 6.04ZM20.0102 3.264C20.1595 3.056 20.3595 2.89867 20.6102 2.792C20.8662 2.68533 21.1595 2.632 21.4902 2.632V3.784C21.3515 3.77333 21.2582 3.768 21.2102 3.768C20.8529 3.768 20.5729 3.86933 20.3702 4.072C20.1675 4.26933 20.0662 4.568 20.0662 4.968V7H18.8182V2.696H20.0102V3.264ZM24.2412 7.064C23.7879 7.064 23.3799 6.97067 23.0172 6.784C22.6599 6.592 22.3799 6.328 22.1772 5.992C21.9745 5.656 21.8732 5.27467 21.8732 4.848C21.8732 4.42133 21.9745 4.04 22.1772 3.704C22.3799 3.368 22.6599 3.10667 23.0172 2.92C23.3799 2.728 23.7879 2.632 24.2412 2.632C24.6945 2.632 25.0999 2.728 25.4572 2.92C25.8145 3.10667 26.0945 3.368 26.2972 3.704C26.4999 4.04 26.6012 4.42133 26.6012 4.848C26.6012 5.27467 26.4999 5.656 26.2972 5.992C26.0945 6.328 25.8145 6.592 25.4572 6.784C25.0999 6.97067 24.6945 7.064 24.2412 7.064ZM24.2412 6.04C24.5612 6.04 24.8225 5.93333 25.0252 5.72C25.2332 5.50133 25.3372 5.21067 25.3372 4.848C25.3372 4.48533 25.2332 4.19733 25.0252 3.984C24.8225 3.76533 24.5612 3.656 24.2412 3.656C23.9212 3.656 23.6572 3.76533 23.4492 3.984C23.2412 4.19733 23.1372 4.48533 23.1372 4.848C23.1372 5.21067 23.2412 5.50133 23.4492 5.72C23.6572 5.93333 23.9212 6.04 24.2412 6.04ZM27.4354 2.696H28.6834V7H27.4354V2.696ZM28.0594 2.096C27.83 2.096 27.6434 2.02933 27.4994 1.896C27.3554 1.76267 27.2834 1.59733 27.2834 1.4C27.2834 1.20267 27.3554 1.03733 27.4994 0.904C27.6434 0.770666 27.83 0.704 28.0594 0.704C28.2887 0.704 28.4754 0.768 28.6194 0.896C28.7634 1.024 28.8354 1.184 28.8354 1.376C28.8354 1.584 28.7634 1.75733 28.6194 1.896C28.4754 2.02933 28.2887 2.096 28.0594 2.096ZM34.2256 1.064V7H33.0336V6.504C32.7243 6.87733 32.2763 7.064 31.6896 7.064C31.2843 7.064 30.9163 6.97333 30.5856 6.792C30.2603 6.61067 30.0043 6.352 29.8176 6.016C29.631 5.68 29.5376 5.29067 29.5376 4.848C29.5376 4.40533 29.631 4.016 29.8176 3.68C30.0043 3.344 30.2603 3.08533 30.5856 2.904C30.9163 2.72267 31.2843 2.632 31.6896 2.632C32.239 2.632 32.6683 2.80533 32.9776 3.152V1.064H34.2256ZM31.9056 6.04C32.2203 6.04 32.4816 5.93333 32.6896 5.72C32.8976 5.50133 33.0016 5.21067 33.0016 4.848C33.0016 4.48533 32.8976 4.19733 32.6896 3.984C32.4816 3.76533 32.2203 3.656 31.9056 3.656C31.5856 3.656 31.3216 3.76533 31.1136 3.984C30.9056 4.19733 30.8016 4.48533 30.8016 4.848C30.8016 5.21067 30.9056 5.50133 31.1136 5.72C31.3216 5.93333 31.5856 6.04 31.9056 6.04ZM41.4223 5.8H38.8223L38.3263 7H36.9983L39.4943 1.4H40.7743L43.2783 7H41.9183L41.4223 5.8ZM41.0143 4.816L40.1263 2.672L39.2383 4.816H41.0143ZM46.3153 2.632C46.7153 2.632 47.078 2.72533 47.4033 2.912C47.734 3.09333 47.9926 3.352 48.1793 3.688C48.366 4.01867 48.4593 4.40533 48.4593 4.848C48.4593 5.29067 48.366 5.68 48.1793 6.016C47.9926 6.34667 47.734 6.60533 47.4033 6.792C47.078 6.97333 46.7153 7.064 46.3153 7.064C45.766 7.064 45.334 6.89067 45.0193 6.544V8.552H43.7713V2.696H44.9633V3.192C45.2726 2.81867 45.7233 2.632 46.3153 2.632ZM46.0993 6.04C46.4193 6.04 46.6806 5.93333 46.8833 5.72C47.0913 5.50133 47.1953 5.21067 47.1953 4.848C47.1953 4.48533 47.0913 4.19733 46.8833 3.984C46.6806 3.76533 46.4193 3.656 46.0993 3.656C45.7793 3.656 45.5153 3.76533 45.3073 3.984C45.1046 4.19733 45.0033 4.48533 45.0033 4.848C45.0033 5.21067 45.1046 5.50133 45.3073 5.72C45.5153 5.93333 45.7793 6.04 46.0993 6.04ZM51.8388 2.632C52.2388 2.632 52.6014 2.72533 52.9268 2.912C53.2574 3.09333 53.5161 3.352 53.7028 3.688C53.8894 4.01867 53.9828 4.40533 53.9828 4.848C53.9828 5.29067 53.8894 5.68 53.7028 6.016C53.5161 6.34667 53.2574 6.60533 52.9268 6.792C52.6014 6.97333 52.2388 7.064 51.8388 7.064C51.2894 7.064 50.8574 6.89067 50.5428 6.544V8.552H49.2948V2.696H50.4868V3.192C50.7961 2.81867 51.2468 2.632 51.8388 2.632ZM51.6228 6.04C51.9428 6.04 52.2041 5.93333 52.4068 5.72C52.6148 5.50133 52.7188 5.21067 52.7188 4.848C52.7188 4.48533 52.6148 4.19733 52.4068 3.984C52.2041 3.76533 51.9428 3.656 51.6228 3.656C51.3028 3.656 51.0388 3.76533 50.8307 3.984C50.6281 4.19733 50.5268 4.48533 50.5268 4.848C50.5268 5.21067 50.6281 5.50133 50.8307 5.72C51.0388 5.93333 51.3028 6.04 51.6228 6.04ZM59.8838 7.096C59.3025 7.096 58.7771 6.97067 58.3078 6.72C57.8438 6.46933 57.4785 6.12533 57.2118 5.688C56.9505 5.24533 56.8198 4.74933 56.8198 4.2C56.8198 3.65067 56.9505 3.15733 57.2118 2.72C57.4785 2.27733 57.8438 1.93067 58.3078 1.68C58.7771 1.42933 59.3025 1.304 59.8838 1.304C60.4651 1.304 60.9878 1.42933 61.4518 1.68C61.9158 1.93067 62.2811 2.27733 62.5478 2.72C62.8145 3.15733 62.9478 3.65067 62.9478 4.2C62.9478 4.74933 62.8145 5.24533 62.5478 5.688C62.2811 6.12533 61.9158 6.46933 61.4518 6.72C60.9878 6.97067 60.4651 7.096 59.8838 7.096ZM59.8838 5.992C60.2145 5.992 60.5131 5.91733 60.7798 5.768C61.0465 5.61333 61.2545 5.4 61.4038 5.128C61.5585 4.856 61.6358 4.54667 61.6358 4.2C61.6358 3.85333 61.5585 3.544 61.4038 3.272C61.2545 3 61.0465 2.78933 60.7798 2.64C60.5131 2.48533 60.2145 2.408 59.8838 2.408C59.5531 2.408 59.2545 2.48533 58.9878 2.64C58.7211 2.78933 58.5105 3 58.3558 3.272C58.2065 3.544 58.1318 3.85333 58.1318 4.2C58.1318 4.54667 58.2065 4.856 58.3558 5.128C58.5105 5.4 58.7211 5.61333 58.9878 5.768C59.2545 5.91733 59.5531 5.992 59.8838 5.992ZM66.4498 2.632C66.9831 2.632 67.4125 2.792 67.7378 3.112C68.0685 3.432 68.2338 3.90667 68.2338 4.536V7H66.9858V4.728C66.9858 4.38667 66.9111 4.13333 66.7618 3.968C66.6125 3.79733 66.3965 3.712 66.1138 3.712C65.7991 3.712 65.5485 3.81067 65.3618 4.008C65.1751 4.2 65.0818 4.488 65.0818 4.872V7H63.8338V2.696H65.0258V3.2C65.1911 3.01867 65.3965 2.88 65.6418 2.784C65.8871 2.68267 66.1565 2.632 66.4498 2.632ZM8.784 18.946H10.856V22.922C10.324 23.3233 9.708 23.6313 9.008 23.846C8.308 24.0607 7.60333 24.168 6.894 24.168C5.87667 24.168 4.962 23.9533 4.15 23.524C3.338 23.0853 2.69867 22.4833 2.232 21.718C1.77467 20.9433 1.546 20.0707 1.546 19.1C1.546 18.1293 1.77467 17.2613 2.232 16.496C2.69867 15.7213 3.34267 15.1193 4.164 14.69C4.98533 14.2513 5.90933 14.032 6.936 14.032C7.79467 14.032 8.574 14.1767 9.274 14.466C9.974 14.7553 10.562 15.1753 11.038 15.726L9.582 17.07C8.882 16.3327 8.03733 15.964 7.048 15.964C6.42267 15.964 5.86733 16.0947 5.382 16.356C4.89667 16.6173 4.51867 16.986 4.248 17.462C3.97733 17.938 3.842 18.484 3.842 19.1C3.842 19.7067 3.97733 20.248 4.248 20.724C4.51867 21.2 4.892 21.5733 5.368 21.844C5.85333 22.1053 6.404 22.236 7.02 22.236C7.67333 22.236 8.26133 22.096 8.784 21.816V18.946ZM17.7088 24.168C16.6914 24.168 15.7721 23.9487 14.9508 23.51C14.1388 23.0713 13.4994 22.4693 13.0328 21.704C12.5754 20.9293 12.3468 20.0613 12.3468 19.1C12.3468 18.1387 12.5754 17.2753 13.0328 16.51C13.4994 15.7353 14.1388 15.1287 14.9508 14.69C15.7721 14.2513 16.6914 14.032 17.7088 14.032C18.7261 14.032 19.6408 14.2513 20.4528 14.69C21.2648 15.1287 21.9041 15.7353 22.3708 16.51C22.8374 17.2753 23.0708 18.1387 23.0708 19.1C23.0708 20.0613 22.8374 20.9293 22.3708 21.704C21.9041 22.4693 21.2648 23.0713 20.4528 23.51C19.6408 23.9487 18.7261 24.168 17.7088 24.168ZM17.7088 22.236C18.2874 22.236 18.8101 22.1053 19.2768 21.844C19.7434 21.5733 20.1074 21.2 20.3688 20.724C20.6394 20.248 20.7748 19.7067 20.7748 19.1C20.7748 18.4933 20.6394 17.952 20.3688 17.476C20.1074 17 19.7434 16.6313 19.2768 16.37C18.8101 16.0993 18.2874 15.964 17.7088 15.964C17.1301 15.964 16.6074 16.0993 16.1408 16.37C15.6741 16.6313 15.3054 17 15.0348 17.476C14.7734 17.952 14.6428 18.4933 14.6428 19.1C14.6428 19.7067 14.7734 20.248 15.0348 20.724C15.3054 21.2 15.6741 21.5733 16.1408 21.844C16.6074 22.1053 17.1301 22.236 17.7088 22.236ZM29.5213 24.168C28.5039 24.168 27.5846 23.9487 26.7633 23.51C25.9513 23.0713 25.3119 22.4693 24.8453 21.704C24.3879 20.9293 24.1593 20.0613 24.1593 19.1C24.1593 18.1387 24.3879 17.2753 24.8453 16.51C25.3119 15.7353 25.9513 15.1287 26.7633 14.69C27.5846 14.2513 28.5039 14.032 29.5213 14.032C30.5386 14.032 31.4533 14.2513 32.2653 14.69C33.0773 15.1287 33.7166 15.7353 34.1833 16.51C34.6499 17.2753 34.8833 18.1387 34.8833 19.1C34.8833 20.0613 34.6499 20.9293 34.1833 21.704C33.7166 22.4693 33.0773 23.0713 32.2653 23.51C31.4533 23.9487 30.5386 24.168 29.5213 24.168ZM29.5213 22.236C30.0999 22.236 30.6226 22.1053 31.0893 21.844C31.5559 21.5733 31.9199 21.2 32.1813 20.724C32.4519 20.248 32.5873 19.7067 32.5873 19.1C32.5873 18.4933 32.4519 17.952 32.1813 17.476C31.9199 17 31.5559 16.6313 31.0893 16.37C30.6226 16.0993 30.0999 15.964 29.5213 15.964C28.9426 15.964 28.4199 16.0993 27.9533 16.37C27.4866 16.6313 27.1179 17 26.8473 17.476C26.5859 17.952 26.4553 18.4933 26.4553 19.1C26.4553 19.7067 26.5859 20.248 26.8473 20.724C27.1179 21.2 27.4866 21.5733 27.9533 21.844C28.4199 22.1053 28.9426 22.236 29.5213 22.236ZM43.2098 18.946H45.2818V22.922C44.7498 23.3233 44.1338 23.6313 43.4338 23.846C42.7338 24.0607 42.0291 24.168 41.3198 24.168C40.3024 24.168 39.3878 23.9533 38.5758 23.524C37.7638 23.0853 37.1244 22.4833 36.6578 21.718C36.2004 20.9433 35.9718 20.0707 35.9718 19.1C35.9718 18.1293 36.2004 17.2613 36.6578 16.496C37.1244 15.7213 37.7684 15.1193 38.5898 14.69C39.4111 14.2513 40.3351 14.032 41.3618 14.032C42.2204 14.032 42.9998 14.1767 43.6998 14.466C44.3998 14.7553 44.9878 15.1753 45.4638 15.726L44.0078 17.07C43.3078 16.3327 42.4631 15.964 41.4738 15.964C40.8484 15.964 40.2931 16.0947 39.8078 16.356C39.3224 16.6173 38.9444 16.986 38.6738 17.462C38.4031 17.938 38.2678 18.484 38.2678 19.1C38.2678 19.7067 38.4031 20.248 38.6738 20.724C38.9444 21.2 39.3178 21.5733 39.7938 21.844C40.2791 22.1053 40.8298 22.236 41.4458 22.236C42.0991 22.236 42.6871 22.096 43.2098 21.816V18.946ZM47.3886 14.2H49.6566V22.152H54.5706V24H47.3886V14.2ZM63.4258 22.18V24H55.8378V14.2H63.2438V16.02H58.0918V18.148H62.6418V19.912H58.0918V22.18H63.4258ZM73.4372 14.2C74.3052 14.2 75.0565 14.3447 75.6912 14.634C76.3352 14.9233 76.8299 15.334 77.1752 15.866C77.5205 16.398 77.6932 17.028 77.6932 17.756C77.6932 18.4747 77.5205 19.1047 77.1752 19.646C76.8299 20.178 76.3352 20.5887 75.6912 20.878C75.0565 21.158 74.3052 21.298 73.4372 21.298H71.4632V24H69.1952V14.2H73.4372ZM73.3112 19.45C73.9925 19.45 74.5105 19.3053 74.8652 19.016C75.2199 18.7173 75.3972 18.2973 75.3972 17.756C75.3972 17.2053 75.2199 16.7853 74.8652 16.496C74.5105 16.1973 73.9925 16.048 73.3112 16.048H71.4632V19.45H73.3112ZM79.3124 14.2H81.5804V22.152H86.4944V24H79.3124V14.2ZM94.2976 21.9H89.7476L88.8796 24H86.5556L90.9236 14.2H93.1636L97.5456 24H95.1656L94.2976 21.9ZM93.5836 20.178L92.0296 16.426L90.4756 20.178H93.5836ZM102.665 20.528V24H100.397V20.5L96.6028 14.2H99.0108L101.629 18.554L104.247 14.2H106.473L102.665 20.528Z" fill="url(#paint0_linear)"/>
<defs>
<linearGradient id="paint0_linear" x1="71" y1="-13" x2="71" y2="40.5385" gradientUnits="userSpaceOnUse">
<stop offset="0.463909" stop-color="#50D1EF"/>
<stop offset="0.670864" stop-color="#FF3636" stop-opacity="0.8"/>
</linearGradient>
</defs>
</svg>
